<?xml version="1.0" encoding="UTF-8"?>
<svg width="203px" height="32px" viewBox="0 0 203 32" version="1.1" xmlns="http://www.w3.org/2000/svg" xmlns:xlink="http://www.w3.org/1999/xlink">
    <!-- Generator: Sketch 51.1 (57501) - http://www.bohemiancoding.com/sketch -->
    <title>Logo/single/white</title>
    <desc>Created with Sketch.</desc>
    <defs></defs>
    <g id="Logo/single/white" stroke="none" stroke-width="1" fill="none" fill-rule="evenodd">
        <g id="singlelinelogo_white" fill="#FFFFFF" fill-rule="nonzero">
            <path d="M29.6254352,15.0969325 C29.6254352,24.2453988 21.8705996,31.8233129 13.9194391,31.8233129 C13.8998066,31.8233129 14.8421663,29.3889571 14.8225338,29.3889571 C6.63578337,29.3889571 0.0196324952,23.3226994 0.0196324952,15.0969325 C0.0196324952,6.85153374 6.65541586,0.176687117 14.8225338,0.176687117 C22.9896518,0.176687117 29.6254352,6.87116564 29.6254352,15.0969325" id="Shape"></path>
            <path d="M142.296325,23.8331288 L142.296325,15.0969325 C142.296325,13.5263804 141.825145,12.3680982 140.882785,11.602454 C139.940426,10.8368098 138.585783,10.4441718 136.838491,10.4441718 C134.993037,10.4441718 133.324275,10.8368098 131.812573,11.6220859 L132.990522,14.0368098 C134.404062,13.408589 135.640909,13.0944785 136.681431,13.0944785 C138.036074,13.0944785 138.723211,13.7619632 138.723211,15.0969325 L138.723211,15.6662577 L136.445841,15.7447853 C134.482592,15.8233129 133.010155,16.1766871 132.02853,16.8441718 C131.046905,17.5116564 130.575725,18.5325153 130.575725,19.9263804 C130.575725,21.2613497 130.92911,22.2822086 131.655513,23.008589 C132.381915,23.7349693 133.36354,24.0883436 134.639652,24.0883436 C135.660542,24.0883436 136.504739,23.9509202 137.132979,23.6564417 C137.761219,23.3619632 138.389458,22.8319018 138.998066,22.0858896 L139.096228,22.0858896 L139.783366,23.8723926 L142.296325,23.8723926 L142.296325,23.8331288 Z M138.742843,18.8466258 C138.742843,19.6319018 138.487621,20.2797546 137.996809,20.7509202 C137.505996,21.2220859 136.838491,21.4576687 136.013926,21.4576687 C134.855609,21.4576687 134.266634,20.9472393 134.266634,19.9460123 C134.266634,19.2392638 134.521857,18.7092025 135.032302,18.3754601 C135.542747,18.0220859 136.308414,17.8453988 137.348936,17.806135 L138.742843,17.7668712 L138.742843,18.8466258 Z M152.897872,22.1447853 L153.054932,22.1447853 L153.74207,23.8527607 L156.490619,23.8527607 L156.490619,5.59509202 L152.897872,5.59509202 L152.897872,9.79631902 C152.897872,10.5619632 152.996035,11.4453988 153.172727,12.407362 L153.054932,12.407362 C152.191103,11.1312883 150.934623,10.4834356 149.265861,10.4834356 C147.695261,10.4834356 146.458414,11.0920245 145.555319,12.2895706 C144.652224,13.4871166 144.220309,15.1754601 144.220309,17.3153374 C144.220309,19.4355828 144.652224,21.0846626 145.535687,22.2822086 C146.419149,23.4797546 147.636364,24.0687117 149.167698,24.0687117 C150.856093,24.0687117 152.09294,23.4208589 152.897872,22.1447853 Z M148.519826,20.2601227 C148.068279,19.6122699 147.852321,18.6503067 147.852321,17.3546012 C147.852321,16.0588957 148.068279,15.0773006 148.519826,14.409816 C148.971373,13.7423313 149.579981,13.3889571 150.384913,13.3889571 C151.366538,13.3889571 152.073308,13.7030675 152.505222,14.3116564 C152.937137,14.9202454 153.153095,15.9411043 153.153095,17.3349693 L153.153095,17.7276074 C153.11383,19.003681 152.87824,19.9067485 152.446325,20.4368098 C152.01441,20.9668712 151.346905,21.2417178 150.424178,21.2417178 C149.599613,21.2220859 148.971373,20.8883436 148.519826,20.2601227 Z M166.562089,23.8331288 L171.568375,10.7190184 L167.818569,10.7190184 L165.285977,18.198773 C164.971857,19.2392638 164.795164,20.1423313 164.755899,20.8883436 L164.677369,20.8883436 C164.598839,20.0441718 164.422147,19.1411043 164.147292,18.198773 L161.6147,10.7190184 L157.864894,10.7190184 L162.87118,23.8331288 L166.562089,23.8331288 Z M174.748839,9.08957055 C175.396712,9.08957055 175.887524,8.93251534 176.201644,8.61840491 C176.535397,8.30429448 176.692456,7.87239264 176.692456,7.32269939 C176.692456,6.16441718 176.044584,5.57546012 174.748839,5.57546012 C173.453095,5.57546012 172.805222,6.16441718 172.805222,7.32269939 C172.805222,8.5006135 173.453095,9.08957055 174.748839,9.08957055 Z M176.535397,10.7190184 L172.962282,10.7190184 L172.962282,23.8331288 L176.535397,23.8331288 L176.535397,10.7190184 Z M187.392166,23.8527607 C187.981141,23.7153374 188.570116,23.4601227 189.139458,23.0871166 L189.139458,20.0245399 C188.550484,20.4171779 187.961509,20.7116564 187.372534,20.8883436 C186.783559,21.0650307 186.155319,21.1631902 185.468182,21.1631902 C183.603095,21.1631902 182.680368,19.8871166 182.680368,17.3153374 C182.680368,14.6650307 183.603095,13.3496933 185.468182,13.3496933 C185.958994,13.3496933 186.430174,13.4282209 186.920986,13.5656442 C187.411799,13.7030675 187.922244,13.8993865 188.491586,14.1153374 L189.551741,11.3472393 C188.354159,10.7582822 186.979884,10.4638037 185.468182,10.4638037 C183.387137,10.4638037 181.796905,11.0527607 180.697485,12.2306748 C179.578433,13.408589 179.028723,15.1165644 179.028723,17.3349693 C179.028723,21.8110429 181.070503,24.0687117 185.154062,24.0687117 C186.057157,24.0687117 186.803191,24.009816 187.392166,23.8527607 Z M198.955706,13.7423313 C199.407253,14.2331288 199.623211,14.9006135 199.642843,15.7840491 L194.616925,15.7840491 C194.675822,14.9006135 194.931044,14.2134969 195.362959,13.7423313 C195.794874,13.2515337 196.383849,13.0159509 197.149516,13.0159509 C197.895551,13.0159509 198.504159,13.2515337 198.955706,13.7423313 Z M200.251451,23.8527607 C200.958221,23.6957055 201.625725,23.4601227 202.253965,23.1460123 L202.253965,20.3779141 C201.488298,20.7312883 200.742263,21.006135 200.055126,21.1631902 C199.348356,21.3202454 198.602321,21.4184049 197.817021,21.4184049 C196.796132,21.4184049 196.010832,21.1239264 195.441489,20.5546012 C194.872147,19.9852761 194.57766,19.1803681 194.538395,18.1791411 L203,18.1791411 L203,16.4515337 C203,14.5865031 202.489555,13.1337423 201.449033,12.0736196 C200.408511,11.0134969 198.975338,10.4834356 197.110251,10.4834356 C195.166634,10.4834356 193.654932,11.0920245 192.555513,12.2895706 C191.456093,13.4871166 190.906383,15.195092 190.906383,17.393865 C190.906383,19.5337423 191.495358,21.1828221 192.69294,22.3411043 C193.890522,23.4993865 195.539652,24.0883436 197.640329,24.0883436 C198.661219,24.0687117 199.544681,23.990184 200.251451,23.8527607 Z" id="Shape"></path>
            <path d="M45.8026112,23.8527607 C46.3915861,23.7153374 46.9805609,23.4601227 47.5499033,23.0871166 L47.5499033,20.0245399 C46.9609284,20.4171779 46.3719536,20.7116564 45.7829787,20.8883436 C45.1940039,21.0650307 44.565764,21.1631902 43.8589942,21.1631902 C41.9939072,21.1631902 41.0711799,19.8871166 41.0711799,17.3153374 C41.0711799,14.6650307 41.9939072,13.3496933 43.8589942,13.3496933 C44.3498066,13.3496933 44.8209865,13.4282209 45.3117988,13.5656442 C45.8026112,13.7030675 46.3130561,13.8993865 46.8823985,14.1153374 L47.9425532,11.3472393 C46.744971,10.7582822 45.3706963,10.4638037 43.8589942,10.4638037 C41.7779497,10.4638037 40.1877176,11.0527607 39.0882979,12.2306748 C37.9692456,13.408589 37.4195358,15.1165644 37.4195358,17.3349693 C37.4195358,21.8110429 39.4613153,24.0687117 43.5448743,24.0687117 C44.4676015,24.0687117 45.2136364,24.009816 45.8026112,23.8527607 Z M51.9083172,9.08957055 C52.5561896,9.08957055 53.0470019,8.93251534 53.3611219,8.61840491 C53.6948743,8.30429448 53.8519342,7.87239264 53.8519342,7.32269939 C53.8519342,6.16441718 53.2040619,5.57546012 51.9083172,5.57546012 C50.6125725,5.57546012 49.9647002,6.16441718 49.9647002,7.32269939 C49.9647002,8.5006135 50.6125725,9.08957055 51.9083172,9.08957055 Z M53.6948743,10.7190184 L50.1217602,10.7190184 L50.1217602,23.8331288 L53.6948743,23.8331288 L53.6948743,10.7190184 Z M61.3711799,20.8490798 C61.0766925,20.6134969 60.939265,20.2404908 60.939265,19.7300613 L60.939265,13.408589 L64.6105416,13.408589 L64.6105416,10.7190184 L60.939265,10.7190184 L60.939265,7.93128834 L58.6422631,7.93128834 L57.6017408,10.6993865 L55.6384913,11.8969325 L55.6384913,13.408589 L57.3465184,13.408589 L57.3465184,19.7300613 C57.3465184,21.1828221 57.6802708,22.2625767 58.3281431,22.9889571 C58.9760155,23.7153374 60.0165377,24.0687117 61.4497099,24.0687117 C62.7454545,24.0687117 63.8448743,23.8723926 64.7283366,23.4797546 L64.7283366,20.809816 C63.8448743,21.0846626 63.0988395,21.2220859 62.4705996,21.2220859 C62.0386847,21.2220859 61.6656673,21.1042945 61.3711799,20.8490798 Z M68.7333656,9.08957055 C69.3812379,9.08957055 69.8720503,8.93251534 70.1861702,8.61840491 C70.5199226,8.30429448 70.6769826,7.87239264 70.6769826,7.32269939 C70.6769826,6.16441718 70.0291103,5.57546012 68.7333656,5.57546012 C67.4376209,5.57546012 66.7897485,6.16441718 66.7897485,7.32269939 C66.7897485,8.5006135 67.4376209,9.08957055 68.7333656,9.08957055 Z M70.5199226,10.7190184 L66.9468085,10.7190184 L66.9468085,23.8331288 L70.5199226,23.8331288 L70.5199226,10.7190184 Z M82.9276596,21.1042945 L76.8023211,21.1042945 L82.7117021,13.0355828 L82.7117021,10.7190184 L72.915087,10.7190184 L72.915087,13.4478528 L78.6281431,13.4478528 L72.5420696,21.7128834 L72.5420696,23.8331288 L82.9080271,23.8331288 L82.9080271,21.1042945 L82.9276596,21.1042945 Z M92.2923598,13.7423313 C92.7439072,14.2331288 92.9598646,14.9006135 92.9794971,15.7840491 L87.9535783,15.7840491 C88.0124758,14.9006135 88.2676983,14.2134969 88.6996132,13.7423313 C89.131528,13.2515337 89.7205029,13.0159509 90.4861702,13.0159509 C91.232205,13.0159509 91.8408124,13.2515337 92.2923598,13.7423313 Z M93.5881044,23.8527607 C94.2948743,23.6957055 94.9623791,23.4601227 95.590619,23.1460123 L95.590619,20.3779141 C94.8249516,20.7312883 94.0789168,21.006135 93.3917795,21.1631902 C92.6850097,21.3202454 91.9389749,21.4184049 91.153675,21.4184049 C90.1327853,21.4184049 89.3474855,21.1239264 88.7781431,20.5546012 C88.2088008,19.9852761 87.9143133,19.1803681 87.8750484,18.1791411 L96.3366538,18.1791411 L96.3366538,16.4515337 C96.3366538,14.5865031 95.8262089,13.1337423 94.7856867,12.0736196 C93.7451644,11.0134969 92.3119923,10.4834356 90.4469052,10.4834356 C88.5032882,10.4834356 86.9915861,11.0920245 85.8921663,12.2895706 C84.7927466,13.4871166 84.2430368,15.195092 84.2430368,17.393865 C84.2430368,19.5337423 84.8320116,21.1828221 86.0295938,22.3411043 C87.227176,23.4993865 88.8763056,24.0883436 90.9769826,24.0883436 C92.0175048,24.0687117 92.8813346,23.990184 93.5881044,23.8527607 Z M110.884333,15.2736196 C110.884333,13.7226994 110.491683,12.5251534 109.706383,11.7006135 C108.921083,10.8760736 107.762766,10.4638037 106.231431,10.4638037 C105.347969,10.4638037 104.543037,10.6208589 103.836267,10.9546012 C103.129497,11.2883436 102.579787,11.7595092 102.187137,12.3877301 L101.990812,12.3877301 L101.5,10.6993865 L98.7710832,10.6993865 L98.7710832,23.8134969 L102.344197,23.8134969 L102.344197,17.6687117 C102.344197,16.1177914 102.560155,15.0184049 103.011702,14.3509202 C103.46325,13.6834356 104.189652,13.3496933 105.190909,13.3496933 C105.917311,13.3496933 106.467021,13.5852761 106.800774,14.0564417 C107.134526,14.5276074 107.311219,15.2343558 107.311219,16.196319 L107.311219,23.8527607 L110.884333,23.8527607 L110.884333,15.2736196 Z M122.919052,18.2576687 C122.683462,17.7865031 122.330077,17.3742331 121.858897,17.0208589 C121.387718,16.6674847 120.62205,16.2748466 119.601161,15.8625767 C118.442843,15.391411 117.696809,15.0576687 117.363056,14.8220859 C117.029304,14.5865031 116.852611,14.3116564 116.852611,13.997546 C116.852611,13.4282209 117.382689,13.1337423 118.442843,13.1337423 C119.031818,13.1337423 119.620793,13.2319018 120.190135,13.408589 C120.759478,13.5852761 121.368085,13.8208589 122.03559,14.0957055 L123.115377,11.5042945 C121.623308,10.8171779 120.07234,10.4638037 118.501741,10.4638037 C116.832979,10.4638037 115.556867,10.7779141 114.653772,11.4257669 C113.750677,12.0539877 113.29913,12.9570552 113.29913,14.1349693 C113.29913,14.8220859 113.397292,15.391411 113.61325,15.8625767 C113.829207,16.3337423 114.162959,16.7460123 114.653772,17.0993865 C115.124952,17.4527607 115.870986,17.8453988 116.872244,18.2773006 C117.579014,18.5717791 118.148356,18.8269939 118.560638,19.0625767 C118.992553,19.2785276 119.287041,19.4944785 119.444101,19.6515337 C119.620793,19.8282209 119.699323,20.0638037 119.699323,20.3386503 C119.699323,21.0846626 119.051451,21.4576687 117.755706,21.4576687 C117.127466,21.4576687 116.381431,21.3595092 115.556867,21.1435583 C114.732302,20.9276074 113.966634,20.6723926 113.29913,20.3582822 L113.29913,23.3226994 C113.888104,23.5779141 114.516344,23.7546012 115.183849,23.8920245 C115.851354,24.0294479 116.675919,24.0883436 117.618279,24.0883436 C119.483366,24.0883436 120.877273,23.7349693 121.819632,23.0282209 C122.761992,22.3214724 123.21354,21.3006135 123.21354,19.9460123 C123.252805,19.2981595 123.13501,18.7288344 122.919052,18.2576687 Z" id="Shape"></path>
        </g>
    </g>
</svg>
